<?xml version="1.0" encoding="UTF-8" standalone="no"?> <svg id="Layer_1" data-name="Layer 1" xmlns="http://www.w3.org/2000/svg" viewBox="0 0 128 128"><defs><style>.cls-1{fill:#2d3e50;}</style></defs><title>n</title><path class="cls-1" d="M86.15787,99.25657c-3.54161,2.827-10.03158,6.41724-14.75995,6.08384-4.67736-.3298-3.78182-4.78987-2.85481-8.295l7.83763-29.63476a13.29171,13.29171,0,0,0-25.68221-6.86278C49.55418,64.7858,40.39666,102.57942,40.34023,102.816c-1.28065,5.36943-2.81226,12.2324-.45115,17.525,3.58188,8.02819,14.46035,5.69646,21.06968,3.78541a52.68574,52.68574,0,0,0,12.91952-5.64322,118.52775,118.52775,0,0,0,13.15678-10.41187Z"/><path class="cls-1" d="M74.55393,2.049c-9.8517-.61753-19.65075,8.23893-20.034,18.3877a15.14774,15.14774,0,0,0,2.23531,8.54311c6.11649,9.89677,20.16846,7.7415,27.76526.91074C94.54734,20.87483,87.832,2.88134,74.55393,2.049Z"/></svg>